<?xml version="1.0" encoding="iso-8859-1"?>
<!-- Uploaded to: SVG Repo, www.svgrepo.com, Generator: SVG Repo Mixer Tools -->
<svg fill="#000000" height="800px" width="800px" version="1.1" id="Layer_1" xmlns="http://www.w3.org/2000/svg" xmlns:xlink="http://www.w3.org/1999/xlink" 
	 viewBox="0 0 511.999 511.999" xml:space="preserve">
<g>
	<g>
		<circle cx="255.999" cy="259.813" r="8.17"/>
	</g>
</g>
<g>
	<g>
		<circle cx="340.36" cy="141.617" r="8.17"/>
	</g>
</g>
<g>
	<g>
		<circle cx="223.319" cy="227.132" r="8.17"/>
	</g>
</g>
<g>
	<g>
		<path d="M339.854,0c-33.327,0-64.393,16.016-83.855,42.534C236.538,16.016,205.472,0,172.145,0
			C114.763,0,68.078,46.684,68.078,104.067c0,32.141,9.842,64.818,29.254,97.124c15.313,25.487,36.6,50.811,63.27,75.268
			c42.537,39.009,84.456,62.882,90.743,66.373c7.41,6.336,23.541,23.062,28.002,39.534H232.64c1.403-5.216,4.084-10.84,8.02-16.809
			c2.485-3.767,1.445-8.835-2.321-11.318c-3.767-2.484-8.835-1.446-11.318,2.321c-7.877,11.944-11.871,23.374-11.871,33.975
			c0,4.512,3.658,8.17,8.17,8.17h24.511v105.123c0,4.512,3.658,8.17,8.17,8.17s8.17-3.658,8.17-8.17V398.706h24.51
			c4.512,0,8.17-3.658,8.17-8.17c0-21.502-16.742-42.066-27.285-52.888c15.799-9.51,48.628-30.74,81.832-61.188
			c26.67-24.457,47.957-49.782,63.27-75.268c19.411-32.305,29.254-64.983,29.254-97.124C443.921,46.684,397.236,0,339.854,0z
			 M340.608,264.181c-36.175,33.227-72.818,55.626-84.609,62.487c-11.79-6.861-48.434-29.26-84.609-62.487
			c-39.676-36.442-86.971-93.803-86.971-160.114c0-48.372,39.353-87.726,87.726-87.726c31.834,0,61.228,17.348,76.71,45.274
			c1.44,2.597,4.176,4.209,7.146,4.209c2.971,0,5.706-1.611,7.146-4.209c15.479-27.926,44.872-45.274,76.706-45.274
			c48.372,0,87.726,39.354,87.726,87.726C427.58,170.378,380.285,227.739,340.608,264.181z"/>
	</g>
</g>
<g>
	<g>
		<path d="M172.145,43.574c-33.355,0-60.492,27.137-60.492,60.492c0,4.512,3.658,8.17,8.17,8.17c4.512,0,8.17-3.658,8.17-8.17
			c0-24.346,19.807-44.152,44.152-44.152c4.512,0,8.17-3.658,8.17-8.17S176.657,43.574,172.145,43.574z"/>
	</g>
</g>
</svg>